<?xml version="1.0" encoding="UTF-8" standalone="no"?>
<!-- Created with Inkscape (http://www.inkscape.org/) -->

<svg
   xmlns:dc="http://purl.org/dc/elements/1.1/"
   xmlns:cc="http://creativecommons.org/ns#"
   xmlns:rdf="http://www.w3.org/1999/02/22-rdf-syntax-ns#"
   xmlns:svg="http://www.w3.org/2000/svg"
   xmlns="http://www.w3.org/2000/svg"
   xmlns:sodipodi="http://sodipodi.sourceforge.net/DTD/sodipodi-0.dtd"
   xmlns:inkscape="http://www.inkscape.org/namespaces/inkscape"
   width="3000mm"
   height="3000mm"
   viewBox="0 0 3000 3000"
   version="1.1"
   id="svg8"
   inkscape:version="0.92.5 (2060ec1f9f, 2020-04-08)"
   sodipodi:docname="макет маркеров.svg">
  <defs
     id="defs2" />
  <sodipodi:namedview
     id="base"
     pagecolor="#ffffff"
     bordercolor="#666666"
     borderopacity="1.0"
     inkscape:pageopacity="0.0"
     inkscape:pageshadow="2"
     inkscape:zoom="0.061871843"
     inkscape:cx="4688.5781"
     inkscape:cy="5643.2168"
     inkscape:document-units="mm"
     inkscape:current-layer="layer1"
     showgrid="false"
     units="mm"
     width="3000mm"
     inkscape:window-width="1848"
     inkscape:window-height="1016"
     inkscape:window-x="72"
     inkscape:window-y="27"
     inkscape:window-maximized="1" />
  <metadata
     id="metadata5">
    <rdf:RDF>
      <cc:Work
         rdf:about="">
        <dc:format>image/svg+xml</dc:format>
        <dc:type
           rdf:resource="http://purl.org/dc/dcmitype/StillImage" />
        <dc:title></dc:title>
      </cc:Work>
    </rdf:RDF>
  </metadata>
  <g
     inkscape:label="Layer 1"
     inkscape:groupmode="layer"
     id="layer1"
     transform="translate(0,2703)">
    <g
       style="shape-rendering:crispEdges"
       id="g3910"
       transform="matrix(66.666667,0,0,66.666667,300,-2403)">
      <rect
         id="rect3866"
         height="6"
         width="6"
         y="0"
         x="0"
         style="fill:#000000" />
      <rect
         id="rect3868"
         y="1"
         x="1"
         height="1"
         width="1"
         style="fill:#ffffff" />
      <rect
         id="rect3870"
         y="1"
         x="3"
         height="1"
         width="1.5"
         style="fill:#ffffff" />
      <rect
         id="rect3872"
         y="1"
         x="4"
         height="1"
         width="1"
         style="fill:#ffffff" />
      <rect
         id="rect3874"
         y="1"
         x="4"
         height="1.5"
         width="1"
         style="fill:#ffffff" />
      <rect
         id="rect3876"
         y="2"
         x="2"
         height="1"
         width="1"
         style="fill:#ffffff" />
      <rect
         id="rect3878"
         y="2"
         x="4"
         height="1"
         width="1"
         style="fill:#ffffff" />
      <rect
         id="rect3880"
         y="2"
         x="4"
         height="1.5"
         width="1"
         style="fill:#ffffff" />
      <rect
         id="rect3882"
         y="3"
         x="3"
         height="1"
         width="1.5"
         style="fill:#ffffff" />
      <rect
         id="rect3884"
         y="3"
         x="3"
         height="1.5"
         width="1"
         style="fill:#ffffff" />
      <rect
         id="rect3886"
         y="3"
         x="4"
         height="1"
         width="1"
         style="fill:#ffffff" />
      <rect
         id="rect3888"
         y="4"
         x="3"
         height="1"
         width="1"
         style="fill:#ffffff" />
    </g>
    <g
       style="shape-rendering:crispEdges"
       id="g4039"
       transform="matrix(66.666667,0,0,66.666667,800,-2403)">
      <rect
         id="rect3995"
         height="6"
         width="6"
         y="0"
         x="0"
         style="fill:#000000" />
      <rect
         id="rect3997"
         y="2"
         x="1"
         height="1"
         width="1.5"
         style="fill:#ffffff" />
      <rect
         id="rect3999"
         y="2"
         x="1"
         height="1.5"
         width="1"
         style="fill:#ffffff" />
      <rect
         id="rect4001"
         y="2"
         x="2"
         height="1"
         width="1.5"
         style="fill:#ffffff" />
      <rect
         id="rect4003"
         y="2"
         x="3"
         height="1"
         width="1.5"
         style="fill:#ffffff" />
      <rect
         id="rect4005"
         y="2"
         x="4"
         height="1"
         width="1"
         style="fill:#ffffff" />
      <rect
         id="rect4007"
         y="2"
         x="4"
         height="1.5"
         width="1"
         style="fill:#ffffff" />
      <rect
         id="rect4009"
         y="3"
         x="1"
         height="1"
         width="1"
         style="fill:#ffffff" />
      <rect
         id="rect4011"
         y="3"
         x="1"
         height="1.5"
         width="1"
         style="fill:#ffffff" />
      <rect
         id="rect4013"
         y="3"
         x="4"
         height="1"
         width="1"
         style="fill:#ffffff" />
      <rect
         id="rect4015"
         y="4"
         x="1"
         height="1"
         width="1"
         style="fill:#ffffff" />
      <rect
         id="rect4017"
         y="4"
         x="3"
         height="1"
         width="1"
         style="fill:#ffffff" />
    </g>
    <g
       style="shape-rendering:crispEdges"
       id="g4168"
       transform="matrix(66.666667,0,0,66.666667,1300,-2403)">
      <rect
         id="rect4124"
         height="6"
         width="6"
         y="0"
         x="0"
         style="fill:#000000" />
      <rect
         id="rect4126"
         y="1"
         x="3"
         height="1"
         width="1.5"
         style="fill:#ffffff" />
      <rect
         id="rect4128"
         y="1"
         x="3"
         height="1.5"
         width="1"
         style="fill:#ffffff" />
      <rect
         id="rect4130"
         y="1"
         x="4"
         height="1"
         width="1"
         style="fill:#ffffff" />
      <rect
         id="rect4132"
         y="1"
         x="4"
         height="1.5"
         width="1"
         style="fill:#ffffff" />
      <rect
         id="rect4134"
         y="2"
         x="3"
         height="1"
         width="1.5"
         style="fill:#ffffff" />
      <rect
         id="rect4136"
         y="2"
         x="3"
         height="1.5"
         width="1"
         style="fill:#ffffff" />
      <rect
         id="rect4138"
         y="2"
         x="4"
         height="1"
         width="1"
         style="fill:#ffffff" />
      <rect
         id="rect4140"
         y="3"
         x="3"
         height="1"
         width="1"
         style="fill:#ffffff" />
      <rect
         id="rect4142"
         y="4"
         x="1"
         height="1"
         width="1.5"
         style="fill:#ffffff" />
      <rect
         id="rect4144"
         y="4"
         x="2"
         height="1"
         width="1"
         style="fill:#ffffff" />
      <rect
         id="rect4146"
         y="4"
         x="4"
         height="1"
         width="1"
         style="fill:#ffffff" />
    </g>
    <g
       style="shape-rendering:crispEdges"
       id="g4343"
       transform="matrix(66.666667,0,0,66.666667,1800,-2403)">
      <rect
         id="rect4302"
         height="6"
         width="6"
         y="0"
         x="0"
         style="fill:#000000" />
      <rect
         id="rect4304"
         y="1"
         x="1"
         height="1"
         width="1"
         style="fill:#ffffff" />
      <rect
         id="rect4306"
         y="1"
         x="1"
         height="1.5"
         width="1"
         style="fill:#ffffff" />
      <rect
         id="rect4308"
         y="1"
         x="4"
         height="1"
         width="1"
         style="fill:#ffffff" />
      <rect
         id="rect4310"
         y="1"
         x="4"
         height="1.5"
         width="1"
         style="fill:#ffffff" />
      <rect
         id="rect4312"
         y="2"
         x="1"
         height="1"
         width="1"
         style="fill:#ffffff" />
      <rect
         id="rect4314"
         y="2"
         x="4"
         height="1"
         width="1"
         style="fill:#ffffff" />
      <rect
         id="rect4316"
         y="3"
         x="2"
         height="1"
         width="1"
         style="fill:#ffffff" />
      <rect
         id="rect4318"
         y="3"
         x="2"
         height="1.5"
         width="1"
         style="fill:#ffffff" />
      <rect
         id="rect4320"
         y="4"
         x="2"
         height="1"
         width="1.5"
         style="fill:#ffffff" />
      <rect
         id="rect4322"
         y="4"
         x="3"
         height="1"
         width="1"
         style="fill:#ffffff" />
    </g>
    <g
       style="shape-rendering:crispEdges"
       id="g4467"
       transform="matrix(66.666667,0,0,66.666667,2300,-2403)">
      <rect
         id="rect4426"
         height="6"
         width="6"
         y="0"
         x="0"
         style="fill:#000000" />
      <rect
         id="rect4428"
         y="1"
         x="2"
         height="1"
         width="1"
         style="fill:#ffffff" />
      <rect
         id="rect4430"
         y="1"
         x="2"
         height="1.5"
         width="1"
         style="fill:#ffffff" />
      <rect
         id="rect4432"
         y="1"
         x="4"
         height="1"
         width="1"
         style="fill:#ffffff" />
      <rect
         id="rect4434"
         y="2"
         x="2"
         height="1"
         width="1"
         style="fill:#ffffff" />
      <rect
         id="rect4436"
         y="3"
         x="1"
         height="1"
         width="1"
         style="fill:#ffffff" />
      <rect
         id="rect4438"
         y="3"
         x="1"
         height="1.5"
         width="1"
         style="fill:#ffffff" />
      <rect
         id="rect4440"
         y="3"
         x="4"
         height="1"
         width="1"
         style="fill:#ffffff" />
      <rect
         id="rect4442"
         y="4"
         x="1"
         height="1"
         width="1.5"
         style="fill:#ffffff" />
      <rect
         id="rect4444"
         y="4"
         x="2"
         height="1"
         width="1.5"
         style="fill:#ffffff" />
      <rect
         id="rect4446"
         y="4"
         x="3"
         height="1"
         width="1"
         style="fill:#ffffff" />
    </g>
    <g
       style="shape-rendering:crispEdges"
       id="g4692"
       transform="matrix(66.666667,0,0,66.666667,300,-1903)">
      <rect
         id="rect4639"
         height="6"
         width="6"
         y="0"
         x="0"
         style="fill:#000000" />
      <rect
         id="rect4641"
         y="1"
         x="2"
         height="1"
         width="1.5"
         style="fill:#ffffff" />
      <rect
         id="rect4643"
         y="1"
         x="3"
         height="1"
         width="1.5"
         style="fill:#ffffff" />
      <rect
         id="rect4645"
         y="1"
         x="4"
         height="1"
         width="1"
         style="fill:#ffffff" />
      <rect
         id="rect4647"
         y="1"
         x="4"
         height="1.5"
         width="1"
         style="fill:#ffffff" />
      <rect
         id="rect4649"
         y="2"
         x="1"
         height="1"
         width="1"
         style="fill:#ffffff" />
      <rect
         id="rect4651"
         y="2"
         x="1"
         height="1.5"
         width="1"
         style="fill:#ffffff" />
      <rect
         id="rect4653"
         y="2"
         x="4"
         height="1"
         width="1"
         style="fill:#ffffff" />
      <rect
         id="rect4655"
         y="3"
         x="1"
         height="1"
         width="1.5"
         style="fill:#ffffff" />
      <rect
         id="rect4657"
         y="3"
         x="1"
         height="1.5"
         width="1"
         style="fill:#ffffff" />
      <rect
         id="rect4659"
         y="3"
         x="2"
         height="1"
         width="1"
         style="fill:#ffffff" />
      <rect
         id="rect4661"
         y="3"
         x="2"
         height="1.5"
         width="1"
         style="fill:#ffffff" />
      <rect
         id="rect4663"
         y="4"
         x="1"
         height="1"
         width="1.5"
         style="fill:#ffffff" />
      <rect
         id="rect4665"
         y="4"
         x="2"
         height="1"
         width="1"
         style="fill:#ffffff" />
      <rect
         id="rect4667"
         y="4"
         x="4"
         height="1"
         width="1"
         style="fill:#ffffff" />
    </g>
    <g
       style="shape-rendering:crispEdges"
       id="g4826"
       transform="matrix(66.666667,0,0,66.666667,800,-1903)">
      <rect
         id="rect4779"
         height="6"
         width="6"
         y="0"
         x="0"
         style="fill:#000000" />
      <rect
         id="rect4781"
         y="1"
         x="1"
         height="1"
         width="1"
         style="fill:#ffffff" />
      <rect
         id="rect4783"
         y="1"
         x="1"
         height="1.5"
         width="1"
         style="fill:#ffffff" />
      <rect
         id="rect4785"
         y="1"
         x="4"
         height="1"
         width="1"
         style="fill:#ffffff" />
      <rect
         id="rect4787"
         y="2"
         x="1"
         height="1"
         width="1.5"
         style="fill:#ffffff" />
      <rect
         id="rect4789"
         y="2"
         x="2"
         height="1"
         width="1.5"
         style="fill:#ffffff" />
      <rect
         id="rect4791"
         y="2"
         x="3"
         height="1"
         width="1"
         style="fill:#ffffff" />
      <rect
         id="rect4793"
         y="2"
         x="3"
         height="1.5"
         width="1"
         style="fill:#ffffff" />
      <rect
         id="rect4795"
         y="3"
         x="3"
         height="1"
         width="1"
         style="fill:#ffffff" />
      <rect
         id="rect4797"
         y="3"
         x="3"
         height="1.5"
         width="1"
         style="fill:#ffffff" />
      <rect
         id="rect4799"
         y="4"
         x="1"
         height="1"
         width="1.5"
         style="fill:#ffffff" />
      <rect
         id="rect4801"
         y="4"
         x="2"
         height="1"
         width="1.5"
         style="fill:#ffffff" />
      <rect
         id="rect4803"
         y="4"
         x="3"
         height="1"
         width="1"
         style="fill:#ffffff" />
    </g>
    <g
       style="shape-rendering:crispEdges"
       id="g4955"
       transform="matrix(66.666667,0,0,66.666667,1300,-1903)">
      <rect
         id="rect4911"
         height="6"
         width="6"
         y="0"
         x="0"
         style="fill:#000000" />
      <rect
         id="rect4913"
         y="1"
         x="1"
         height="1"
         width="1.5"
         style="fill:#ffffff" />
      <rect
         id="rect4915"
         y="1"
         x="2"
         height="1"
         width="1"
         style="fill:#ffffff" />
      <rect
         id="rect4917"
         y="1"
         x="2"
         height="1.5"
         width="1"
         style="fill:#ffffff" />
      <rect
         id="rect4919"
         y="2"
         x="2"
         height="1"
         width="1"
         style="fill:#ffffff" />
      <rect
         id="rect4921"
         y="2"
         x="2"
         height="1.5"
         width="1"
         style="fill:#ffffff" />
      <rect
         id="rect4923"
         y="3"
         x="1"
         height="1"
         width="1.5"
         style="fill:#ffffff" />
      <rect
         id="rect4925"
         y="3"
         x="2"
         height="1"
         width="1.5"
         style="fill:#ffffff" />
      <rect
         id="rect4927"
         y="3"
         x="3"
         height="1"
         width="1.5"
         style="fill:#ffffff" />
      <rect
         id="rect4929"
         y="3"
         x="3"
         height="1.5"
         width="1"
         style="fill:#ffffff" />
      <rect
         id="rect4931"
         y="3"
         x="4"
         height="1"
         width="1"
         style="fill:#ffffff" />
      <rect
         id="rect4933"
         y="4"
         x="3"
         height="1"
         width="1"
         style="fill:#ffffff" />
    </g>
    <g
       style="shape-rendering:crispEdges"
       id="g5119"
       transform="matrix(66.666667,0,0,66.666667,1800,-1903)">
      <rect
         id="rect5054"
         height="6"
         width="6"
         y="0"
         x="0"
         style="fill:#000000" />
      <rect
         id="rect5056"
         y="1"
         x="1"
         height="1"
         width="1.5"
         style="fill:#ffffff" />
      <rect
         id="rect5058"
         y="1"
         x="1"
         height="1.5"
         width="1"
         style="fill:#ffffff" />
      <rect
         id="rect5060"
         y="1"
         x="2"
         height="1"
         width="1.5"
         style="fill:#ffffff" />
      <rect
         id="rect5062"
         y="1"
         x="2"
         height="1.5"
         width="1"
         style="fill:#ffffff" />
      <rect
         id="rect5064"
         y="1"
         x="3"
         height="1"
         width="1.5"
         style="fill:#ffffff" />
      <rect
         id="rect5066"
         y="1"
         x="3"
         height="1.5"
         width="1"
         style="fill:#ffffff" />
      <rect
         id="rect5068"
         y="1"
         x="4"
         height="1"
         width="1"
         style="fill:#ffffff" />
      <rect
         id="rect5070"
         y="2"
         x="1"
         height="1"
         width="1.5"
         style="fill:#ffffff" />
      <rect
         id="rect5072"
         y="2"
         x="1"
         height="1.5"
         width="1"
         style="fill:#ffffff" />
      <rect
         id="rect5074"
         y="2"
         x="2"
         height="1"
         width="1.5"
         style="fill:#ffffff" />
      <rect
         id="rect5076"
         y="2"
         x="2"
         height="1.5"
         width="1"
         style="fill:#ffffff" />
      <rect
         id="rect5078"
         y="2"
         x="3"
         height="1"
         width="1"
         style="fill:#ffffff" />
      <rect
         id="rect5080"
         y="3"
         x="1"
         height="1"
         width="1.5"
         style="fill:#ffffff" />
      <rect
         id="rect5082"
         y="3"
         x="1"
         height="1.5"
         width="1"
         style="fill:#ffffff" />
      <rect
         id="rect5084"
         y="3"
         x="2"
         height="1"
         width="1"
         style="fill:#ffffff" />
      <rect
         id="rect5086"
         y="3"
         x="4"
         height="1"
         width="1"
         style="fill:#ffffff" />
      <rect
         id="rect5088"
         y="4"
         x="1"
         height="1"
         width="1"
         style="fill:#ffffff" />
      <rect
         id="rect5090"
         y="4"
         x="3"
         height="1"
         width="1"
         style="fill:#ffffff" />
    </g>
    <g
       style="shape-rendering:crispEdges"
       id="g5370"
       transform="matrix(66.666667,0,0,66.666667,2300,-1903)">
      <rect
         id="rect5314"
         height="6"
         width="6"
         y="0"
         x="0"
         style="fill:#000000" />
      <rect
         id="rect5316"
         y="1"
         x="1"
         height="1"
         width="1.5"
         style="fill:#ffffff" />
      <rect
         id="rect5318"
         y="1"
         x="1"
         height="1.5"
         width="1"
         style="fill:#ffffff" />
      <rect
         id="rect5320"
         y="1"
         x="2"
         height="1"
         width="1"
         style="fill:#ffffff" />
      <rect
         id="rect5322"
         y="1"
         x="2"
         height="1.5"
         width="1"
         style="fill:#ffffff" />
      <rect
         id="rect5324"
         y="2"
         x="1"
         height="1"
         width="1.5"
         style="fill:#ffffff" />
      <rect
         id="rect5326"
         y="2"
         x="2"
         height="1"
         width="1.5"
         style="fill:#ffffff" />
      <rect
         id="rect5328"
         y="2"
         x="2"
         height="1.5"
         width="1"
         style="fill:#ffffff" />
      <rect
         id="rect5330"
         y="2"
         x="3"
         height="1"
         width="1.5"
         style="fill:#ffffff" />
      <rect
         id="rect5332"
         y="2"
         x="4"
         height="1"
         width="1"
         style="fill:#ffffff" />
      <rect
         id="rect5334"
         y="2"
         x="4"
         height="1.5"
         width="1"
         style="fill:#ffffff" />
      <rect
         id="rect5336"
         y="3"
         x="2"
         height="1"
         width="1"
         style="fill:#ffffff" />
      <rect
         id="rect5338"
         y="3"
         x="2"
         height="1.5"
         width="1"
         style="fill:#ffffff" />
      <rect
         id="rect5340"
         y="3"
         x="4"
         height="1"
         width="1"
         style="fill:#ffffff" />
      <rect
         id="rect5342"
         y="4"
         x="2"
         height="1"
         width="1.5"
         style="fill:#ffffff" />
      <rect
         id="rect5344"
         y="4"
         x="3"
         height="1"
         width="1"
         style="fill:#ffffff" />
    </g>
    <g
       style="shape-rendering:crispEdges"
       id="g5514"
       transform="matrix(66.666667,0,0,66.666667,300,-1403)">
      <rect
         id="rect5461"
         height="6"
         width="6"
         y="0"
         x="0"
         style="fill:#000000" />
      <rect
         id="rect5463"
         y="1"
         x="1"
         height="1"
         width="1.5"
         style="fill:#ffffff" />
      <rect
         id="rect5465"
         y="1"
         x="1"
         height="1.5"
         width="1"
         style="fill:#ffffff" />
      <rect
         id="rect5467"
         y="1"
         x="2"
         height="1"
         width="1.5"
         style="fill:#ffffff" />
      <rect
         id="rect5469"
         y="1"
         x="3"
         height="1"
         width="1.5"
         style="fill:#ffffff" />
      <rect
         id="rect5471"
         y="1"
         x="4"
         height="1"
         width="1"
         style="fill:#ffffff" />
      <rect
         id="rect5473"
         y="1"
         x="4"
         height="1.5"
         width="1"
         style="fill:#ffffff" />
      <rect
         id="rect5475"
         y="2"
         x="1"
         height="1"
         width="1"
         style="fill:#ffffff" />
      <rect
         id="rect5477"
         y="2"
         x="1"
         height="1.5"
         width="1"
         style="fill:#ffffff" />
      <rect
         id="rect5479"
         y="2"
         x="4"
         height="1"
         width="1"
         style="fill:#ffffff" />
      <rect
         id="rect5481"
         y="2"
         x="4"
         height="1.5"
         width="1"
         style="fill:#ffffff" />
      <rect
         id="rect5483"
         y="3"
         x="1"
         height="1"
         width="1"
         style="fill:#ffffff" />
      <rect
         id="rect5485"
         y="3"
         x="4"
         height="1"
         width="1"
         style="fill:#ffffff" />
      <rect
         id="rect5487"
         y="3"
         x="4"
         height="1.5"
         width="1"
         style="fill:#ffffff" />
      <rect
         id="rect5489"
         y="4"
         x="4"
         height="1"
         width="1"
         style="fill:#ffffff" />
    </g>
    <g
       style="shape-rendering:crispEdges"
       id="g5633"
       transform="matrix(66.666667,0,0,66.666667,800,-1403)">
      <rect
         id="rect5595"
         height="6"
         width="6"
         y="0"
         x="0"
         style="fill:#000000" />
      <rect
         id="rect5597"
         y="1"
         x="4"
         height="1"
         width="1"
         style="fill:#ffffff" />
      <rect
         id="rect5599"
         y="1"
         x="4"
         height="1.5"
         width="1"
         style="fill:#ffffff" />
      <rect
         id="rect5601"
         y="2"
         x="4"
         height="1"
         width="1"
         style="fill:#ffffff" />
      <rect
         id="rect5603"
         y="3"
         x="1"
         height="1"
         width="1"
         style="fill:#ffffff" />
      <rect
         id="rect5605"
         y="3"
         x="3"
         height="1"
         width="1"
         style="fill:#ffffff" />
      <rect
         id="rect5607"
         y="3"
         x="3"
         height="1.5"
         width="1"
         style="fill:#ffffff" />
      <rect
         id="rect5609"
         y="4"
         x="2"
         height="1"
         width="1.5"
         style="fill:#ffffff" />
      <rect
         id="rect5611"
         y="4"
         x="3"
         height="1"
         width="1.5"
         style="fill:#ffffff" />
      <rect
         id="rect5613"
         y="4"
         x="4"
         height="1"
         width="1"
         style="fill:#ffffff" />
    </g>
    <g
       style="shape-rendering:crispEdges"
       id="g5772"
       transform="matrix(66.666667,0,0,66.666667,1300,-1403)">
      <rect
         id="rect5722"
         height="6"
         width="6"
         y="0"
         x="0"
         style="fill:#000000" />
      <rect
         id="rect5724"
         y="2"
         x="1"
         height="1"
         width="1.5"
         style="fill:#ffffff" />
      <rect
         id="rect5726"
         y="2"
         x="1"
         height="1.5"
         width="1"
         style="fill:#ffffff" />
      <rect
         id="rect5728"
         y="2"
         x="2"
         height="1"
         width="1.5"
         style="fill:#ffffff" />
      <rect
         id="rect5730"
         y="2"
         x="3"
         height="1"
         width="1"
         style="fill:#ffffff" />
      <rect
         id="rect5732"
         y="2"
         x="3"
         height="1.5"
         width="1"
         style="fill:#ffffff" />
      <rect
         id="rect5734"
         y="3"
         x="1"
         height="1"
         width="1"
         style="fill:#ffffff" />
      <rect
         id="rect5736"
         y="3"
         x="3"
         height="1"
         width="1.5"
         style="fill:#ffffff" />
      <rect
         id="rect5738"
         y="3"
         x="3"
         height="1.5"
         width="1"
         style="fill:#ffffff" />
      <rect
         id="rect5740"
         y="3"
         x="4"
         height="1"
         width="1"
         style="fill:#ffffff" />
      <rect
         id="rect5742"
         y="3"
         x="4"
         height="1.5"
         width="1"
         style="fill:#ffffff" />
      <rect
         id="rect5744"
         y="4"
         x="2"
         height="1"
         width="1.5"
         style="fill:#ffffff" />
      <rect
         id="rect5746"
         y="4"
         x="3"
         height="1"
         width="1.5"
         style="fill:#ffffff" />
      <rect
         id="rect5748"
         y="4"
         x="4"
         height="1"
         width="1"
         style="fill:#ffffff" />
    </g>
    <g
       style="shape-rendering:crispEdges"
       id="g5886"
       transform="matrix(66.666667,0,0,66.666667,1800,-1403)">
      <rect
         id="rect5851"
         height="6"
         width="6"
         y="0"
         x="0"
         style="fill:#000000" />
      <rect
         id="rect5853"
         y="1"
         x="3"
         height="1"
         width="1"
         style="fill:#ffffff" />
      <rect
         id="rect5855"
         y="1"
         x="3"
         height="1.5"
         width="1"
         style="fill:#ffffff" />
      <rect
         id="rect5857"
         y="2"
         x="1"
         height="1"
         width="1"
         style="fill:#ffffff" />
      <rect
         id="rect5859"
         y="2"
         x="3"
         height="1"
         width="1"
         style="fill:#ffffff" />
      <rect
         id="rect5861"
         y="4"
         x="1"
         height="1"
         width="1.5"
         style="fill:#ffffff" />
      <rect
         id="rect5863"
         y="4"
         x="2"
         height="1"
         width="1.5"
         style="fill:#ffffff" />
      <rect
         id="rect5865"
         y="4"
         x="3"
         height="1"
         width="1.5"
         style="fill:#ffffff" />
      <rect
         id="rect5867"
         y="4"
         x="4"
         height="1"
         width="1"
         style="fill:#ffffff" />
    </g>
    <g
       style="shape-rendering:crispEdges"
       id="g5995"
       transform="matrix(66.666667,0,0,66.666667,2300,-1403)">
      <rect
         id="rect5963"
         height="6"
         width="6"
         y="0"
         x="0"
         style="fill:#000000" />
      <rect
         id="rect5965"
         y="1"
         x="3"
         height="1"
         width="1"
         style="fill:#ffffff" />
      <rect
         id="rect5967"
         y="2"
         x="2"
         height="1"
         width="1"
         style="fill:#ffffff" />
      <rect
         id="rect5969"
         y="3"
         x="1"
         height="1"
         width="1"
         style="fill:#ffffff" />
      <rect
         id="rect5971"
         y="3"
         x="3"
         height="1"
         width="1.5"
         style="fill:#ffffff" />
      <rect
         id="rect5973"
         y="3"
         x="4"
         height="1"
         width="1"
         style="fill:#ffffff" />
      <rect
         id="rect5975"
         y="3"
         x="4"
         height="1.5"
         width="1"
         style="fill:#ffffff" />
      <rect
         id="rect5977"
         y="4"
         x="4"
         height="1"
         width="1"
         style="fill:#ffffff" />
    </g>
    <g
       style="shape-rendering:crispEdges"
       id="g6175"
       transform="matrix(66.666667,0,0,66.666667,300,-903)">
      <rect
         id="rect6131"
         height="6"
         width="6"
         y="0"
         x="0"
         style="fill:#000000" />
      <rect
         id="rect6133"
         y="1"
         x="3"
         height="1"
         width="1"
         style="fill:#ffffff" />
      <rect
         id="rect6135"
         y="1"
         x="3"
         height="1.5"
         width="1"
         style="fill:#ffffff" />
      <rect
         id="rect6137"
         y="2"
         x="2"
         height="1"
         width="1.5"
         style="fill:#ffffff" />
      <rect
         id="rect6139"
         y="2"
         x="3"
         height="1"
         width="1"
         style="fill:#ffffff" />
      <rect
         id="rect6141"
         y="2"
         x="3"
         height="1.5"
         width="1"
         style="fill:#ffffff" />
      <rect
         id="rect6143"
         y="3"
         x="3"
         height="1"
         width="1.5"
         style="fill:#ffffff" />
      <rect
         id="rect6145"
         y="3"
         x="3"
         height="1.5"
         width="1"
         style="fill:#ffffff" />
      <rect
         id="rect6147"
         y="3"
         x="4"
         height="1"
         width="1"
         style="fill:#ffffff" />
      <rect
         id="rect6149"
         y="4"
         x="1"
         height="1"
         width="1.5"
         style="fill:#ffffff" />
      <rect
         id="rect6151"
         y="4"
         x="2"
         height="1"
         width="1.5"
         style="fill:#ffffff" />
      <rect
         id="rect6153"
         y="4"
         x="3"
         height="1"
         width="1"
         style="fill:#ffffff" />
    </g>
    <g
       style="shape-rendering:crispEdges"
       id="g6304"
       transform="matrix(66.666667,0,0,66.666667,800,-903)">
      <rect
         id="rect6260"
         height="6"
         width="6"
         y="0"
         x="0"
         style="fill:#000000" />
      <rect
         id="rect6262"
         y="1"
         x="2"
         height="1"
         width="1"
         style="fill:#ffffff" />
      <rect
         id="rect6264"
         y="1"
         x="2"
         height="1.5"
         width="1"
         style="fill:#ffffff" />
      <rect
         id="rect6266"
         y="2"
         x="2"
         height="1"
         width="1.5"
         style="fill:#ffffff" />
      <rect
         id="rect6268"
         y="2"
         x="2"
         height="1.5"
         width="1"
         style="fill:#ffffff" />
      <rect
         id="rect6270"
         y="2"
         x="3"
         height="1"
         width="1"
         style="fill:#ffffff" />
      <rect
         id="rect6272"
         y="2"
         x="3"
         height="1.5"
         width="1"
         style="fill:#ffffff" />
      <rect
         id="rect6274"
         y="3"
         x="2"
         height="1"
         width="1.5"
         style="fill:#ffffff" />
      <rect
         id="rect6276"
         y="3"
         x="2"
         height="1.5"
         width="1"
         style="fill:#ffffff" />
      <rect
         id="rect6278"
         y="3"
         x="3"
         height="1"
         width="1"
         style="fill:#ffffff" />
      <rect
         id="rect6280"
         y="4"
         x="2"
         height="1"
         width="1"
         style="fill:#ffffff" />
      <rect
         id="rect6282"
         y="4"
         x="4"
         height="1"
         width="1"
         style="fill:#ffffff" />
    </g>
    <g
       style="shape-rendering:crispEdges"
       id="g6408"
       transform="matrix(66.666667,0,0,66.666667,1300,-903)">
      <rect
         id="rect6379"
         height="6"
         width="6"
         y="0"
         x="0"
         style="fill:#000000" />
      <rect
         id="rect6381"
         y="1"
         x="2"
         height="1"
         width="1.5"
         style="fill:#ffffff" />
      <rect
         id="rect6383"
         y="1"
         x="2"
         height="1.5"
         width="1"
         style="fill:#ffffff" />
      <rect
         id="rect6385"
         y="1"
         x="3"
         height="1"
         width="1"
         style="fill:#ffffff" />
      <rect
         id="rect6387"
         y="1"
         x="3"
         height="1.5"
         width="1"
         style="fill:#ffffff" />
      <rect
         id="rect6389"
         y="2"
         x="2"
         height="1"
         width="1.5"
         style="fill:#ffffff" />
      <rect
         id="rect6391"
         y="2"
         x="3"
         height="1"
         width="1"
         style="fill:#ffffff" />
    </g>
    <g
       style="shape-rendering:crispEdges"
       id="g6542"
       transform="matrix(66.666667,0,0,66.666667,1800,-903)">
      <rect
         id="rect6495"
         height="6"
         width="6"
         y="0"
         x="0"
         style="fill:#000000" />
      <rect
         id="rect6497"
         y="1"
         x="2"
         height="1"
         width="1.5"
         style="fill:#ffffff" />
      <rect
         id="rect6499"
         y="1"
         x="2"
         height="1.5"
         width="1"
         style="fill:#ffffff" />
      <rect
         id="rect6501"
         y="1"
         x="3"
         height="1"
         width="1"
         style="fill:#ffffff" />
      <rect
         id="rect6503"
         y="2"
         x="1"
         height="1"
         width="1.5"
         style="fill:#ffffff" />
      <rect
         id="rect6505"
         y="2"
         x="2"
         height="1"
         width="1"
         style="fill:#ffffff" />
      <rect
         id="rect6507"
         y="2"
         x="2"
         height="1.5"
         width="1"
         style="fill:#ffffff" />
      <rect
         id="rect6509"
         y="3"
         x="2"
         height="1"
         width="1"
         style="fill:#ffffff" />
      <rect
         id="rect6511"
         y="3"
         x="2"
         height="1.5"
         width="1"
         style="fill:#ffffff" />
      <rect
         id="rect6513"
         y="3"
         x="4"
         height="1"
         width="1"
         style="fill:#ffffff" />
      <rect
         id="rect6515"
         y="4"
         x="1"
         height="1"
         width="1.5"
         style="fill:#ffffff" />
      <rect
         id="rect6517"
         y="4"
         x="2"
         height="1"
         width="1.5"
         style="fill:#ffffff" />
      <rect
         id="rect6519"
         y="4"
         x="3"
         height="1"
         width="1"
         style="fill:#ffffff" />
    </g>
    <g
       style="shape-rendering:crispEdges"
       id="g6696"
       transform="matrix(66.666667,0,0,66.666667,2300,-903)">
      <rect
         id="rect6637"
         height="6"
         width="6"
         y="0"
         x="0"
         style="fill:#000000" />
      <rect
         id="rect6639"
         y="1"
         x="2"
         height="1"
         width="1.5"
         style="fill:#ffffff" />
      <rect
         id="rect6641"
         y="1"
         x="2"
         height="1.5"
         width="1"
         style="fill:#ffffff" />
      <rect
         id="rect6643"
         y="1"
         x="3"
         height="1"
         width="1.5"
         style="fill:#ffffff" />
      <rect
         id="rect6645"
         y="1"
         x="3"
         height="1.5"
         width="1"
         style="fill:#ffffff" />
      <rect
         id="rect6647"
         y="1"
         x="4"
         height="1"
         width="1"
         style="fill:#ffffff" />
      <rect
         id="rect6649"
         y="2"
         x="2"
         height="1"
         width="1.5"
         style="fill:#ffffff" />
      <rect
         id="rect6651"
         y="2"
         x="3"
         height="1"
         width="1"
         style="fill:#ffffff" />
      <rect
         id="rect6653"
         y="2"
         x="3"
         height="1.5"
         width="1"
         style="fill:#ffffff" />
      <rect
         id="rect6655"
         y="3"
         x="1"
         height="1"
         width="1"
         style="fill:#ffffff" />
      <rect
         id="rect6657"
         y="3"
         x="1"
         height="1.5"
         width="1"
         style="fill:#ffffff" />
      <rect
         id="rect6659"
         y="3"
         x="3"
         height="1"
         width="1"
         style="fill:#ffffff" />
      <rect
         id="rect6661"
         y="3"
         x="3"
         height="1.5"
         width="1"
         style="fill:#ffffff" />
      <rect
         id="rect6663"
         y="4"
         x="1"
         height="1"
         width="1.5"
         style="fill:#ffffff" />
      <rect
         id="rect6665"
         y="4"
         x="2"
         height="1"
         width="1.5"
         style="fill:#ffffff" />
      <rect
         id="rect6667"
         y="4"
         x="3"
         height="1"
         width="1.5"
         style="fill:#ffffff" />
      <rect
         id="rect6669"
         y="4"
         x="4"
         height="1"
         width="1"
         style="fill:#ffffff" />
    </g>
    <g
       style="shape-rendering:crispEdges"
       id="g6810"
       transform="matrix(66.666667,0,0,66.666667,300,-403)">
      <rect
         id="rect6775"
         height="6"
         width="6"
         y="0"
         x="0"
         style="fill:#000000" />
      <rect
         id="rect6777"
         y="1"
         x="1"
         height="1"
         width="1"
         style="fill:#ffffff" />
      <rect
         id="rect6779"
         y="2"
         x="2"
         height="1"
         width="1.5"
         style="fill:#ffffff" />
      <rect
         id="rect6781"
         y="2"
         x="3"
         height="1"
         width="1"
         style="fill:#ffffff" />
      <rect
         id="rect6783"
         y="3"
         x="1"
         height="1"
         width="1"
         style="fill:#ffffff" />
      <rect
         id="rect6785"
         y="3"
         x="1"
         height="1.5"
         width="1"
         style="fill:#ffffff" />
      <rect
         id="rect6787"
         y="4"
         x="1"
         height="1"
         width="1"
         style="fill:#ffffff" />
      <rect
         id="rect6789"
         y="4"
         x="3"
         height="1"
         width="1.5"
         style="fill:#ffffff" />
      <rect
         id="rect6791"
         y="4"
         x="4"
         height="1"
         width="1"
         style="fill:#ffffff" />
    </g>
    <g
       style="shape-rendering:crispEdges"
       id="g6924"
       transform="matrix(66.666667,0,0,66.666667,800,-403)">
      <rect
         id="rect6889"
         height="6"
         width="6"
         y="0"
         x="0"
         style="fill:#000000" />
      <rect
         id="rect6891"
         y="1"
         x="1"
         height="1"
         width="1"
         style="fill:#ffffff" />
      <rect
         id="rect6893"
         y="1"
         x="3"
         height="1"
         width="1.5"
         style="fill:#ffffff" />
      <rect
         id="rect6895"
         y="1"
         x="4"
         height="1"
         width="1"
         style="fill:#ffffff" />
      <rect
         id="rect6897"
         y="3"
         x="3"
         height="1"
         width="1"
         style="fill:#ffffff" />
      <rect
         id="rect6899"
         y="3"
         x="3"
         height="1.5"
         width="1"
         style="fill:#ffffff" />
      <rect
         id="rect6901"
         y="4"
         x="1"
         height="1"
         width="1"
         style="fill:#ffffff" />
      <rect
         id="rect6903"
         y="4"
         x="3"
         height="1"
         width="1.5"
         style="fill:#ffffff" />
      <rect
         id="rect6905"
         y="4"
         x="4"
         height="1"
         width="1"
         style="fill:#ffffff" />
    </g>
    <g
       style="shape-rendering:crispEdges"
       id="g7073"
       transform="matrix(66.666667,0,0,66.666667,1300,-403)">
      <rect
         id="rect7017"
         height="6"
         width="6"
         y="0"
         x="0"
         style="fill:#000000" />
      <rect
         id="rect7019"
         y="1"
         x="1"
         height="1"
         width="1.5"
         style="fill:#ffffff" />
      <rect
         id="rect7021"
         y="1"
         x="1"
         height="1.5"
         width="1"
         style="fill:#ffffff" />
      <rect
         id="rect7023"
         y="1"
         x="2"
         height="1"
         width="1"
         style="fill:#ffffff" />
      <rect
         id="rect7025"
         y="1"
         x="2"
         height="1.5"
         width="1"
         style="fill:#ffffff" />
      <rect
         id="rect7027"
         y="2"
         x="1"
         height="1"
         width="1.5"
         style="fill:#ffffff" />
      <rect
         id="rect7029"
         y="2"
         x="1"
         height="1.5"
         width="1"
         style="fill:#ffffff" />
      <rect
         id="rect7031"
         y="2"
         x="2"
         height="1"
         width="1"
         style="fill:#ffffff" />
      <rect
         id="rect7033"
         y="2"
         x="2"
         height="1.5"
         width="1"
         style="fill:#ffffff" />
      <rect
         id="rect7035"
         y="3"
         x="1"
         height="1"
         width="1.5"
         style="fill:#ffffff" />
      <rect
         id="rect7037"
         y="3"
         x="2"
         height="1"
         width="1"
         style="fill:#ffffff" />
      <rect
         id="rect7039"
         y="3"
         x="2"
         height="1.5"
         width="1"
         style="fill:#ffffff" />
      <rect
         id="rect7041"
         y="3"
         x="4"
         height="1"
         width="1"
         style="fill:#ffffff" />
      <rect
         id="rect7043"
         y="3"
         x="4"
         height="1.5"
         width="1"
         style="fill:#ffffff" />
      <rect
         id="rect7045"
         y="4"
         x="2"
         height="1"
         width="1"
         style="fill:#ffffff" />
      <rect
         id="rect7047"
         y="4"
         x="4"
         height="1"
         width="1"
         style="fill:#ffffff" />
    </g>
    <g
       style="shape-rendering:crispEdges"
       id="g7207"
       transform="matrix(66.666667,0,0,66.666667,1800,-403)">
      <rect
         id="rect7160"
         height="6"
         width="6"
         y="0"
         x="0"
         style="fill:#000000" />
      <rect
         id="rect7162"
         y="1"
         x="1"
         height="1"
         width="1.5"
         style="fill:#ffffff" />
      <rect
         id="rect7164"
         y="1"
         x="1"
         height="1.5"
         width="1"
         style="fill:#ffffff" />
      <rect
         id="rect7166"
         y="1"
         x="2"
         height="1"
         width="1"
         style="fill:#ffffff" />
      <rect
         id="rect7168"
         y="1"
         x="2"
         height="1.5"
         width="1"
         style="fill:#ffffff" />
      <rect
         id="rect7170"
         y="1"
         x="4"
         height="1"
         width="1"
         style="fill:#ffffff" />
      <rect
         id="rect7172"
         y="1"
         x="4"
         height="1.5"
         width="1"
         style="fill:#ffffff" />
      <rect
         id="rect7174"
         y="2"
         x="1"
         height="1"
         width="1.5"
         style="fill:#ffffff" />
      <rect
         id="rect7176"
         y="2"
         x="1"
         height="1.5"
         width="1"
         style="fill:#ffffff" />
      <rect
         id="rect7178"
         y="2"
         x="2"
         height="1"
         width="1"
         style="fill:#ffffff" />
      <rect
         id="rect7180"
         y="2"
         x="4"
         height="1"
         width="1"
         style="fill:#ffffff" />
      <rect
         id="rect7182"
         y="3"
         x="1"
         height="1"
         width="1"
         style="fill:#ffffff" />
      <rect
         id="rect7184"
         y="4"
         x="3"
         height="1"
         width="1"
         style="fill:#ffffff" />
    </g>
    <g
       style="shape-rendering:crispEdges"
       id="g7361"
       transform="matrix(66.666667,0,0,66.666667,2300,-403)">
      <rect
         id="rect7302"
         height="6"
         width="6"
         y="0"
         x="0"
         style="fill:#000000" />
      <rect
         id="rect7304"
         y="1"
         x="1"
         height="1"
         width="1.5"
         style="fill:#ffffff" />
      <rect
         id="rect7306"
         y="1"
         x="1"
         height="1.5"
         width="1"
         style="fill:#ffffff" />
      <rect
         id="rect7308"
         y="1"
         x="2"
         height="1"
         width="1.5"
         style="fill:#ffffff" />
      <rect
         id="rect7310"
         y="1"
         x="2"
         height="1.5"
         width="1"
         style="fill:#ffffff" />
      <rect
         id="rect7312"
         y="1"
         x="3"
         height="1"
         width="1.5"
         style="fill:#ffffff" />
      <rect
         id="rect7314"
         y="1"
         x="3"
         height="1.5"
         width="1"
         style="fill:#ffffff" />
      <rect
         id="rect7316"
         y="1"
         x="4"
         height="1"
         width="1"
         style="fill:#ffffff" />
      <rect
         id="rect7318"
         y="2"
         x="1"
         height="1"
         width="1.5"
         style="fill:#ffffff" />
      <rect
         id="rect7320"
         y="2"
         x="2"
         height="1"
         width="1.5"
         style="fill:#ffffff" />
      <rect
         id="rect7322"
         y="2"
         x="2"
         height="1.5"
         width="1"
         style="fill:#ffffff" />
      <rect
         id="rect7324"
         y="2"
         x="3"
         height="1"
         width="1"
         style="fill:#ffffff" />
      <rect
         id="rect7326"
         y="3"
         x="2"
         height="1"
         width="1"
         style="fill:#ffffff" />
      <rect
         id="rect7328"
         y="3"
         x="2"
         height="1.5"
         width="1"
         style="fill:#ffffff" />
      <rect
         id="rect7330"
         y="4"
         x="2"
         height="1"
         width="1.5"
         style="fill:#ffffff" />
      <rect
         id="rect7332"
         y="4"
         x="3"
         height="1"
         width="1.5"
         style="fill:#ffffff" />
      <rect
         id="rect7334"
         y="4"
         x="4"
         height="1"
         width="1"
         style="fill:#ffffff" />
    </g>
  </g>
</svg>
